<svg xmlns="http://www.w3.org/2000/svg" xmlns:xlink="http://www.w3.org/1999/xlink" width="381.96" height="365.889" viewBox="0 0 381.96 365.889"><defs><style>.a{fill:#1d1a1a;}.b{fill:#343030;}.c{fill:#1c1c1d;}.d{fill:rgba(38,38,39,0.54);}.e{fill:url(#c);}.f{fill:#161313;}.g{filter:url(#a);}</style><filter id="a" x="15.392" y="22.4" width="366.568" height="343.489" filterUnits="userSpaceOnUse"><feOffset dx="42" dy="19" input="SourceAlpha"/><feGaussianBlur stdDeviation="5.5" result="b"/><feFlood flood-opacity="0.161"/><feComposite operator="in" in2="b"/><feComposite in="SourceGraphic"/></filter><linearGradient id="c" x1="0.348" y1="0.589" x2="0.744" y2="0.917" gradientUnits="objectBoundingBox"><stop offset="0" stop-color="#191818"/><stop offset="1" stop-color="#2d2c2c"/></linearGradient></defs><g transform="translate(-1.246 -1)"><path class="a" d="M290.191,163.9a130.572,130.572,0,0,0-1.322-17.494l32.166-16.722L310.642,97.719l-35.706,5.365a128.612,128.612,0,0,0-20.686-28.3l16.184-32.413L243.24,22.612,217.4,48.047a127.48,127.48,0,0,0-33.275-10.83L178.191,1.5h-33.6l-5.947,35.728a127.7,127.7,0,0,0-33.286,10.83L79.519,22.646,52.348,42.391l16.173,32.4a129.456,129.456,0,0,0-20.675,28.3L12.128,97.73,1.746,129.7l32.166,16.71A130.571,130.571,0,0,0,32.591,163.9a130.571,130.571,0,0,0,1.322,17.494L1.746,198.116,12.14,230.081l35.706-5.365a128.612,128.612,0,0,0,20.686,28.3l-16.184,32.4,27.194,19.757,25.838-25.435a127.479,127.479,0,0,0,33.275,10.83l5.936,35.728h33.6l5.947-35.728a127.694,127.694,0,0,0,33.286-10.83l25.838,25.424,27.182-19.757-16.173-32.4a129.457,129.457,0,0,0,20.675-28.3l35.717,5.365L321.047,198.1l-32.166-16.71A132.446,132.446,0,0,0,290.191,163.9Zm-128.8,39.2a39.2,39.2,0,1,1,39.2-39.2A39.214,39.214,0,0,1,161.391,203.1Z" transform="translate(5.103 5.1)"/><g class="g" transform="matrix(1, 0, 0, 1, 1.25, 1)"><path class="b" d="M296.206,213.93a6.857,6.857,0,0,0,7.258-4.491l3.472-10.64c.952-2.934,2.285-7.549,2.979-10.248s-1.12-5.846-3.976-6.978l-11.323-8.534c-2.867-1.12-7.336-3.136-9.946-4.48a8.583,8.583,0,0,1-4.077-8.03,118.274,118.274,0,0,0,.694-11.917,118.274,118.274,0,0,0-.694-11.917,8.8,8.8,0,0,1,4.334-8.154l22.232-11.558a6.856,6.856,0,0,0,3.237-7.907l-1.333-4.088c-.952-2.934-8.635-23.33-11.682-22.87,0,0-29.848,6.8-31.506,4.2L257.3,80.582c-1.982-2.352-3.125-5.253-2.542-6.429.6-1.176-.437-4.077-2.285-6.429s-6.014-10.472-4.637-13.227l7.235-14.515a6.845,6.845,0,0,0-2.027-8.3l-5.835-4.245a6.871,6.871,0,0,0-8.523.638L220.83,45.65a9.255,9.255,0,0,1-9.173,1.814L189,40.117a9.283,9.283,0,0,1-6.339-6.888l-.717-4.3c-.5-3.035-1.77-5.779-2.822-6.07s-4.312-3.394-4.816-6.429l-1.31-7.885A6.855,6.855,0,0,0,166.476,3H149.632a6.857,6.857,0,0,0-6.518,5.522L139,33.206a9.3,9.3,0,0,1-6.339,6.888l-22.68,7.37a9.291,9.291,0,0,1-9.173-1.826L82.958,28.066a6.868,6.868,0,0,0-8.523-.627l-18.1,13.138a6.868,6.868,0,0,0-2.027,8.31l2.789,5.6c1.378,2.755,2.509,5.006,2.5,5.018s1.12,2.262,2.5,5.018l3.36,6.765a9.244,9.244,0,0,1-1.109,9.3L50.276,99.869a9.365,9.365,0,0,1-8.534,3.909l-24.651-3.7a6.857,6.857,0,0,0-7.258,4.491l-3.472,10.64a6.882,6.882,0,0,0,3.248,7.907l10.427,5.41a8.793,8.793,0,0,1,4.334,8.154,118.273,118.273,0,0,0-.694,11.917c0,4.861.392,8.714.392,8.714.314,3.058,1.378,6.25,2.363,7.067V165.4c0,5.947,4.043,12.69,4.043,12.69a5.212,5.212,0,0,1-2.094,7.381L6.148,197.029a6.856,6.856,0,0,0-3.237,7.907l1.333,4.088a6.844,6.844,0,0,0,7.258,4.491l21.885-3.293a9.362,9.362,0,0,1,8.534,3.909L56,233.429c1.982,2.352,3.125,5.253,2.542,6.429-.6,1.176-15.12,30.251-15.12,30.251-1.378,2.755,14.325,10.416,16.822,12.219l5.835,4.245a6.871,6.871,0,0,0,8.523-.638l17.853-17.573a9.255,9.255,0,0,1,9.173-1.814l22.658,7.347a9.283,9.283,0,0,1,6.339,6.888l.717,4.3c.5,3.035,1.77,5.779,2.822,6.07s4.312,3.394,4.816,6.429l1.31,7.885a6.857,6.857,0,0,0,6.518,5.522h16.867a6.857,6.857,0,0,0,6.518-5.522l4.11-24.685a9.3,9.3,0,0,1,6.339-6.888l22.669-7.358a9.291,9.291,0,0,1,9.173,1.826l17.853,17.562a6.87,6.87,0,0,0,8.523.638l18.1-13.149a6.849,6.849,0,0,0,2.027-8.3l-2.789-5.6c-1.378-2.755-2.509-5.006-2.5-5.018s-1.12-2.262-2.5-5.018l-3.371-6.765a9.244,9.244,0,0,1,1.109-9.3l14.067-19.286a9.365,9.365,0,0,1,8.534-3.909ZM152.476,187.8a39.2,39.2,0,1,1,39.2-39.2A39.214,39.214,0,0,1,152.476,187.8Z" transform="translate(12.77 19.4)"/></g><g transform="translate(71.614 120.82)"><path class="c" d="M32.269,23.008a8.793,8.793,0,0,0-4.334,8.154,55.219,55.219,0,0,0,.694,11.917c2.341,12.611-2.3,26.734-2.3,26.734a8.615,8.615,0,0,0,4.077,8.03c1.96,1.008,4.962,2.408,7.56,3.506.134-2,1.859-19.1,1.859-21.47a118.273,118.273,0,0,0-.694-11.917,8.8,8.8,0,0,1,4.334-8.154L65.7,28.25a6.856,6.856,0,0,0,3.237-7.907l-1.333-4.088a6.844,6.844,0,0,0-7.258-4.491L51.3,13.119Z" transform="translate(183.851 -11.698)"/><path class="d" d="M183.191,24.584l-8.21-6.194c-.65,2.285-1.378,4.771-1.982,6.619l-3.472,10.64a6.844,6.844,0,0,1-7.258,4.491l-24.651-3.7a9.362,9.362,0,0,0-8.534,3.909L115.016,59.64a9.244,9.244,0,0,0-1.109,9.3l3.371,6.765c1.378,2.755,2.5,5.018,2.5,5.018s1.12,2.262,2.5,5.018l2.789,5.6a6.849,6.849,0,0,1-2.027,8.3l-18.1,13.149a6.856,6.856,0,0,1-8.523-.638L78.56,94.584a9.291,9.291,0,0,0-9.173-1.826l-22.669,7.358A9.283,9.283,0,0,0,40.379,107l-4.11,24.685a6.878,6.878,0,0,1-6.53,5.533H14.653a8.613,8.613,0,0,1,1.613,3.394l1.31,7.885a6.857,6.857,0,0,0,6.518,5.522H40.939a6.857,6.857,0,0,0,6.518-5.522l4.11-24.685a9.3,9.3,0,0,1,6.339-6.888l22.669-7.358a9.291,9.291,0,0,1,9.173,1.826L107.6,128.956a6.869,6.869,0,0,0,8.523.638l18.1-13.149a6.849,6.849,0,0,0,2.027-8.3l-2.789-5.6c-1.378-2.755-2.509-5.006-2.5-5.018s-1.12-2.262-2.5-5.018L125.1,85.747a9.244,9.244,0,0,1,1.109-9.3l14.067-19.286a9.365,9.365,0,0,1,8.534-3.909l24.651,3.7a6.857,6.857,0,0,0,7.258-4.491l3.472-10.64c.952-2.934,2.285-7.549,2.979-10.248C187.85,28.851,186.058,25.715,183.191,24.584Z" transform="translate(65.141 56.558)"/><path class="c" d="M82.574,48.371l-.717-4.3c-.5-3.035-5.376-5.544-8.366-6.306L40.383,25.511a9.255,9.255,0,0,0-9.173,1.814L13.358,44.9a6.414,6.414,0,0,1-3.573,1.658L8.172,49.782a6.845,6.845,0,0,0,2.027,8.3l5.835,4.245a6.871,6.871,0,0,0,8.523-.638L42.41,44.115A9.255,9.255,0,0,1,51.583,42.3L84.22,53.153A13.39,13.39,0,0,1,82.574,48.371Z" transform="translate(-7.529 123.805)"/></g><path class="e" d="M183.294,337h-33.6a5.6,5.6,0,0,1-5.522-4.682l-5.32-31.9a133.176,133.176,0,0,1-27.227-8.87l-23.072,22.7a5.6,5.6,0,0,1-7.224.538L54.158,295.045a5.6,5.6,0,0,1-1.714-7.034l14.448-28.93A134.744,134.744,0,0,1,49.947,235.92l-31.875,4.794a5.515,5.515,0,0,1-6.16-3.808L1.518,204.941a5.607,5.607,0,0,1,2.744-6.7l28.706-14.93A125.708,125.708,0,0,1,32.094,169a123.484,123.484,0,0,1,.885-14.314L4.273,139.768a5.6,5.6,0,0,1-2.744-6.7l10.382-31.965a5.535,5.535,0,0,1,6.16-3.808l31.9,4.782c1.77-3.069,3.685-6.093,5.7-9a5.594,5.594,0,0,1,9.2,6.373,118.6,118.6,0,0,0-6.978,11.413,5.553,5.553,0,0,1-5.768,2.878L21.1,109.08l-7.448,22.938L41.6,146.544a5.6,5.6,0,0,1,2.968,5.723A122.4,122.4,0,0,0,43.294,169a124.04,124.04,0,0,0,1.266,16.733,5.6,5.6,0,0,1-2.968,5.723L13.637,205.994,21.1,228.931l31.024-4.659a5.569,5.569,0,0,1,5.768,2.89,123.522,123.522,0,0,0,19.79,27.07,5.6,5.6,0,0,1,.974,6.384L64.574,288.773l19.51,14.179,22.456-22.109a5.652,5.652,0,0,1,6.373-1.053,121.747,121.747,0,0,0,31.808,10.36,5.6,5.6,0,0,1,4.536,4.592l5.186,31.058h24.1l5.174-31.046a5.6,5.6,0,0,1,4.536-4.592,122.027,122.027,0,0,0,31.83-10.36,5.6,5.6,0,0,1,6.362,1.053l22.456,22.1,19.5-14.179-14.056-28.157a5.587,5.587,0,0,1,.974-6.384,123.668,123.668,0,0,0,19.779-27.07,5.536,5.536,0,0,1,5.768-2.89L311.9,228.92l7.448-22.938L291.4,191.456a5.6,5.6,0,0,1-2.968-5.723A124.045,124.045,0,0,0,289.694,169a124.04,124.04,0,0,0-1.266-16.733,5.6,5.6,0,0,1,2.968-5.723l27.955-14.538-7.459-22.938-31.024,4.659a5.628,5.628,0,0,1-5.768-2.89,123.522,123.522,0,0,0-19.79-27.07,5.6,5.6,0,0,1-.974-6.384l14.078-28.157L248.893,35.048,226.437,57.157a5.608,5.608,0,0,1-6.373,1.053,121.747,121.747,0,0,0-31.808-10.36,5.6,5.6,0,0,1-4.536-4.592L178.545,12.2h-24.1l-5.174,31.046a5.6,5.6,0,0,1-4.536,4.592A122.027,122.027,0,0,0,112.9,58.2a5.606,5.606,0,0,1-6.362-1.053L84.085,35.059,64.574,49.238,78.63,77.384A5.6,5.6,0,0,1,68.617,82.4L52.433,50a5.6,5.6,0,0,1,1.725-7.034L81.341,23.21a5.6,5.6,0,0,1,7.224.538l23.072,22.691a133.276,133.276,0,0,1,27.238-8.87l5.32-31.9a5.562,5.562,0,0,1,5.5-4.67h33.6a5.6,5.6,0,0,1,5.522,4.682l5.32,31.9a133.178,133.178,0,0,1,27.227,8.87l23.072-22.7a5.609,5.609,0,0,1,7.224-.538l27.194,19.757A5.6,5.6,0,0,1,280.566,50L266.118,78.93a134.744,134.744,0,0,1,16.946,23.162L314.939,97.3a5.537,5.537,0,0,1,6.16,3.808l10.394,31.965a5.607,5.607,0,0,1-2.744,6.7L300.043,154.7a130.378,130.378,0,0,1,.851,14.3,123.478,123.478,0,0,1-.885,14.314l28.706,14.918a5.6,5.6,0,0,1,2.744,6.7l-10.382,31.965a5.5,5.5,0,0,1-6.16,3.808L283.03,235.92A135.436,135.436,0,0,1,266.1,259.082L280.533,288a5.612,5.612,0,0,1-1.714,7.034L251.637,314.79a5.61,5.61,0,0,1-7.224-.538l-23.072-22.691a133.275,133.275,0,0,1-27.238,8.87l-5.32,31.9A5.542,5.542,0,0,1,183.294,337Zm-16.8-123.2a44.8,44.8,0,1,1,44.8-44.8A44.845,44.845,0,0,1,166.494,213.8Zm0-78.4a33.6,33.6,0,1,0,33.6,33.6A33.641,33.641,0,0,0,166.494,135.4Z" transform="translate(0)"/><path class="f" d="M97.6,187.2a89.55,89.55,0,1,1,71.042-34.966,5.6,5.6,0,0,1-8.882-6.821A78.33,78.33,0,1,0,124.7,171.184a5.605,5.605,0,1,1,3.853,10.528A89.849,89.849,0,0,1,97.6,187.2Z" transform="translate(68.894 71.4)"/><circle class="f" cx="5.6" cy="5.6" r="5.6" transform="translate(211.294 230.6)"/></g></svg>